<svg xmlns="http://www.w3.org/2000/svg" viewBox="0 0 32 32" id="bean">
  <path fill="#d82e42" d="M30.051 17.139c2.309 3.88-.08 8.36-2.008 10.29-3.408 3.41-12.311 6.8-21.284-2.17S1.183 7.369 4.59 3.959c1.929-1.93 6.4-4.32 10.283-2.01 4.216 2.51 2.228 6.06 5.675 9.51s6.995 1.46 9.503 5.68Z"></path>
  <path fill="#252525" d="M18.98 32.023c-3.949 0-8.476-1.607-12.927-6.056-9.118-9.134-6.292-18.588-2.17-22.715 2.27-2.271 7.206-4.719 11.5-2.162 2.635 1.569 3.174 3.527 3.7 5.42a8.452 8.452 0 0 0 2.175 4.242 8.448 8.448 0 0 0 4.239 2.177c1.892.522 3.849 1.062 5.416 3.7 2.557 4.3.109 9.238-2.161 11.509a14 14 0 0 1-9.772 3.885ZM11.4 2.012a9.328 9.328 0 0 0-6.1 2.654C2.836 7.129-1.569 15.5 7.466 24.553s17.41 4.63 19.87 2.17c1.758-1.76 3.816-5.778 1.856-9.072-1.156-1.946-2.512-2.321-4.229-2.794a10.346 10.346 0 0 1-5.121-2.691 10.363 10.363 0 0 1-2.689-5.125c-.473-1.718-.847-3.075-2.791-4.232a5.7 5.7 0 0 0-2.962-.797Z"></path>
  <path fill="#252525" d="M21.008 19a8.559 8.559 0 0 1-5.6-2.393A8.57 8.57 0 0 1 13.014 11a1 1 0 1 1 2 0 6.636 6.636 0 0 0 1.806 4.193A6.628 6.628 0 0 0 21.012 17a1 1 0 0 1 0 2Z"></path>
</svg>
