<?xml version="1.0" encoding="UTF-8" standalone="no"?>
<!-- Created with Inkscape (http://www.inkscape.org/) -->

<svg
   width="180"
   height="180"
   viewBox="0 0 180 180"
   version="1.1"
   id="svg1"
   xml:space="preserve"
   xmlns="http://www.w3.org/2000/svg"
   xmlns:svg="http://www.w3.org/2000/svg"><defs
     id="defs1" /><g
     id="layer1"><g
       id="g8458"
       transform="matrix(0.77871201,0,0,0.77871201,15.056454,26.090697)"><path
         style="fill:#e23421"
         d="m 166.09081,196.90746 c 0.20485,-0.0827 0.54005,-0.0827 0.7449,0 0.20485,0.0827 0.0373,0.15029 -0.37245,0.15029 -0.40969,0 -0.5773,-0.0676 -0.37245,-0.15029 z m 7.52349,-3.6836 c 0,-0.0819 2.01123,-2.15685 4.4694,-4.61093 2.45817,-2.45407 4.4694,-4.3949 4.4694,-4.31297 0,0.0819 -2.01123,2.15686 -4.4694,4.61093 -2.45817,2.45408 -4.4694,4.39491 -4.4694,4.31297 z m -150.507812,-2.5997 c -0.370624,-0.47258 -0.360085,-0.48312 0.112496,-0.11249 0.286787,0.22491 0.52143,0.45955 0.52143,0.52143 0,0.24523 -0.24468,0.0874 -0.633926,-0.40894 z m -3.697695,-3.7245 -1.478599,-1.56429 1.56429,1.4786 c 0.86036,0.81323 1.56429,1.51716 1.56429,1.56429 0,0.22234 -0.27604,-0.025 -1.649981,-1.4786 z M 8.9129348,165.14858 C -8.8798346,147.37073 -9.989453,146.14939 -9.4447016,144.94258 -9.3014076,144.62514 5.1805299,129.98522 22.737382,112.40943 40.294234,94.833641 54.808611,80.160579 54.991553,79.802627 55.802757,78.215395 56.481961,78.944509 22.846534,45.295528 -2.5429009,19.895862 -9.6311072,12.64581 -9.6311072,12.076321 c 0,-0.871374 35.4382892,-36.556097 36.5965642,-36.851053 1.395591,-0.355389 -0.522319,-2.173164 39.819201,37.740237 7.702064,7.620328 14.676716,14.529293 15.499226,15.353256 8.57577,8.590919 11.43054,11.165186 12.381791,11.165186 0.888202,0 3.626807,-2.658717 32.998035,-32.0354375 31.95463,-31.9606085 32.7547,-32.7127415 34.19199,-32.1432585 0.97262,0.385372 36.48183,35.59961 36.67709,36.37242 0.34099,1.349557 -1.0494,2.810212 -32.56669,34.212416 -28.6206,28.516097 -32.29652,32.28093 -32.28803,33.069018 0.008,0.778557 4.05512,4.935997 32.48723,33.376065 34.07095,34.08048 32.97677,32.89764 32.05509,34.65265 -0.36501,0.69503 -35.40254,35.58983 -36.33078,36.18278 -1.23518,0.78902 -1.23207,0.79195 -33.99425,-31.9319 -22.36107,-22.33492 -32.453728,-32.22281 -33.03597,-32.36573 -1.48832,-0.36533 1.504171,-3.22463 -44.451555,42.47304 -20.448061,20.33324 -22.230675,22.05262 -22.863615,22.05262 -0.201254,0 -8.585333,-8.21252 -18.6312852,-18.25005 z m 118.9575152,-2.9796 -2.37669,-2.45817 2.45817,2.37669 c 1.35199,1.30718 2.45817,2.41336 2.45817,2.45817 0,0.21732 -0.33225,-0.0936 -2.53965,-2.37669 z m -3.4421,-3.42654 -0.72235,-0.81939 0.81939,0.72235 c 0.76584,0.67514 0.95603,0.91643 0.72235,0.91643 -0.0534,0 -0.4221,-0.36872 -0.81939,-0.81939 z m -3.59098,-3.57552 c -0.37062,-0.47258 -0.36008,-0.48312 0.1125,-0.11249 0.28679,0.22491 0.52143,0.45955 0.52143,0.52143 0,0.24523 -0.24468,0.0874 -0.63393,-0.40894 z m -138.14631,-9.01329 c 0,-0.57357 0.06132,-0.80822 0.136264,-0.52143 0.07494,0.28679 0.07494,0.75607 0,1.04286 -0.07494,0.28679 -0.136264,0.0521 -0.136264,-0.52143 z m 224.02033,0.12415 c 0.0143,-0.34711 0.0849,-0.41771 0.18001,-0.18002 0.0861,0.21509 0.0755,0.47208 -0.0235,0.57109 -0.099,0.099 -0.16943,-0.077 -0.15649,-0.39107 z M -2.9270069,127.08419 c 0.2966151,-0.32776 0.6063412,-0.59592 0.6882802,-0.59592 0.081939,0 -0.093705,0.26816 -0.3903202,0.59592 -0.2966151,0.32776 -0.6063412,0.59592 -0.6882802,0.59592 -0.081939,0 0.093705,-0.26816 0.3903202,-0.59592 z m 1.9367401,-1.93674 c 0.55592886,-0.57357 1.07782076,-1.04286 1.15975976,-1.04286 0.081939,0 -0.30587088,0.46929 -0.86179975,1.04286 -0.55592891,0.57357 -1.07782071,1.04286 -1.15975971,1.04286 -0.081939,0 0.3058708,-0.46929 0.8617997,-1.04286 z M 160.79184,96.170839 l -1.6286,-1.71327 1.71327,1.628602 c 1.59168,1.513022 1.84976,1.797938 1.6286,1.797938 -0.0466,0 -0.81754,-0.770971 -1.71327,-1.71327 z M 37.148615,86.710609 c 0.890133,-0.901329 1.685464,-1.63878 1.767403,-1.63878 0.08194,0 -0.57931,0.737451 -1.469443,1.63878 -0.890133,0.901329 -1.685464,1.63878 -1.767403,1.63878 -0.08194,0 0.57931,-0.737451 1.469443,-1.63878 z M -17.354544,12.493735 c 0.0143,-0.347106 0.0849,-0.417709 0.180017,-0.180017 0.08607,0.21509 0.07549,0.47208 -0.02352,0.57109 -0.09901,0.09901 -0.169432,-0.07697 -0.156494,-0.391073 z m 84.436939,-9.73336 -1.478599,-1.56429 1.56429,1.4785992 c 1.453566,1.3739408 1.700935,1.6499809 1.478599,1.6499809 -0.04713,0 -0.75106,-0.7039305 -1.56429,-1.5642901 z m -78.054322,-0.81939 c 1.1383555,-1.14714606 2.1367786,-2.0857201 2.2187176,-2.0857201 0.081939,0 -0.782402,0.93857404 -1.9207576,2.0857201 -1.138356,1.147146 -2.136779,2.0857201 -2.218718,2.0857201 -0.08194,0 0.782402,-0.9385741 1.920758,-2.0857201 z m 75.212352,-2.01123009 -0.722349,-0.81939004 0.81939,0.72234864 c 0.765843,0.67514358 0.956031,0.91643143 0.722349,0.91643143 -0.05337,0 -0.422099,-0.36872551 -0.81939,-0.81939003 z M 37.744535,-26.216236 c -1.220882,-1.229085 -2.152745,-2.2347 -2.070806,-2.2347 0.08194,0 1.147884,1.005615 2.368766,2.2347 1.220882,1.229085 2.152745,2.2347 2.070806,2.2347 -0.08194,0 -1.147884,-1.005615 -2.368766,-2.2347 z m 129.444885,-4.09695 -0.87514,-0.96837 0.96837,0.875135 c 0.5326,0.481325 0.96837,0.917091 0.96837,0.96837 0,0.230192 -0.24585,0.02752 -1.0616,-0.875135 z m -133.654332,-0.14898 c -0.370623,-0.472582 -0.360084,-0.483121 0.112497,-0.112497 0.286786,0.224914 0.52143,0.459557 0.52143,0.52143 0,0.245231 -0.244681,0.08739 -0.633927,-0.408933 z"
         id="path8459" /><path
         style="fill:#060604"
         d="m 32.083295,196.63563 c -0.245817,-0.0479 -0.934303,-0.16622 -1.52997,-0.26296 -1.845674,-0.29974 -2.81316,-1.21031 -24.8654256,-23.40264 -24.3690674,-24.52385 -22.9341184,-22.79297 -22.7127184,-27.39675 0.223361,-4.64456 -2.279184,-1.831 35.258761,-39.64071 C 29.38083,94.704977 40.003752,83.976826 41.840436,82.092229 L 45.179861,78.665688 14.979915,48.422747 C -18.621969,14.773023 -16.931128,16.675446 -16.931128,12.518565 c 0,-4.6096726 -0.852515,-3.5599606 19.7649029,-24.336739 19.0407841,-19.187959 20.2233351,-20.299279 22.1534111,-20.818994 4.269986,-1.149788 6.074914,-0.27925 12.471678,6.015237 7.841883,7.7165 32.183004,31.8320757 45.053178,44.635714 l 11.842926,11.7817 30.765352,-30.74952636 C 158.87233,-34.688685 156.90266,-32.917165 160.73775,-32.988278 c 4.01043,-0.07436 3.17454,-0.77627 24.97368,20.970722 21.0903,21.0398483 20.60408,20.4800661 20.91897,24.08385 0.10606,1.213876 0.3986,2.005423 1.13888,3.081596 1.78458,2.594332 2.0039,5.073189 0.68353,7.725739 -0.43289,0.86965 -9.91514,10.56016 -30.32047,30.986394 l -29.69061,29.721016 5.5095,5.587245 c 3.03023,3.072985 15.86213,15.978596 28.51533,28.679146 25.06993,25.16372 24.30952,24.29702 24.30354,27.7005 -0.002,1.40916 0.12739,1.79781 0.89432,2.67628 2.24407,2.57048 2.8171,6.27931 1.40227,9.07595 -1.08368,2.14208 -37.19308,37.87783 -39.23845,38.83243 -5.24163,2.44633 -5.33971,2.37733 -26.3079,-18.50822 -42.23449,-42.06803 -43.44253,-43.24016 -44.565048,-43.24016 -0.95688,0 -2.943754,1.92161 -31.786129,30.74196 -27.124876,27.10417 -30.906482,30.77634 -31.957288,31.03246 -1.847671,0.45033 -2.643011,0.57159 -3.12858,0.477 z m -2.905969,-14.3377 c 0.696954,-0.60538 10.250683,-10.03375 21.230509,-20.95192 45.955726,-45.69767 42.963235,-42.83837 44.451555,-42.47304 0.582242,0.14292 10.6749,10.03081 33.03597,32.36573 32.76218,32.72385 32.75907,32.72092 33.99425,31.9319 0.92824,-0.59295 35.96577,-35.48775 36.33078,-36.18278 0.92168,-1.75501 2.01586,-0.57217 -32.05509,-34.65265 -28.43211,-28.440068 -32.47883,-32.597508 -32.48723,-33.376065 -0.008,-0.788088 3.66743,-4.552921 32.28803,-33.069018 31.51729,-31.402204 32.90768,-32.862859 32.56669,-34.212416 -0.19526,-0.77281 -35.70447,-35.987048 -36.67709,-36.37242 -1.43729,-0.569483 -2.23736,0.18265 -34.19199,32.1432585 C 98.292482,36.82523 95.553877,39.483947 94.665675,39.483947 c -0.951251,0 -3.806021,-2.574267 -12.381791,-11.165186 -0.82251,-0.823963 -7.797162,-7.732928 -15.499226,-15.353256 -40.34152,-39.913401 -38.42361,-38.095626 -39.819201,-37.740237 -1.158275,0.294956 -36.5965642,35.979679 -36.5965642,36.851053 0,0.569489 7.0882063,7.819541 32.4776412,33.219207 33.635427,33.648981 32.956223,32.919867 32.145019,34.507099 -0.182942,0.357952 -14.697319,15.031014 -32.254171,32.606803 -32.5704448,32.60558 -32.5714925,32.60668 -32.2662165,33.79971 0.1978796,0.77333 36.5000295,37.18949 37.0730545,37.18949 0.201255,0 0.936153,-0.49531 1.633106,-1.1007 z"
         id="path8458" /></g></g></svg>
